<svg width="24" height="24" viewBox="0 0 24 24" fill="none" xmlns="http://www.w3.org/2000/svg">
<circle cx="12" cy="12" r="11.5" stroke="#0029FF"/>
<path d="M13.5469 21H10.4316V9.37695H13.5469V21ZM10.249 6.36914C10.249 5.90365 10.403 5.52051 10.7109 5.21973C11.026 4.91895 11.4521 4.76855 11.9893 4.76855C12.5192 4.76855 12.9417 4.91895 13.2568 5.21973C13.5719 5.52051 13.7295 5.90365 13.7295 6.36914C13.7295 6.8418 13.5684 7.22852 13.2461 7.5293C12.931 7.83008 12.512 7.98047 11.9893 7.98047C11.4665 7.98047 11.0439 7.83008 10.7217 7.5293C10.4066 7.22852 10.249 6.8418 10.249 6.36914Z" fill="#0029FF"/>
</svg>
