<svg width="263" height="250" viewBox="0 0 263 250" fill="none" xmlns="http://www.w3.org/2000/svg">
<path d="M259.5 125C259.5 191.938 202.362 246.5 131.5 246.5C60.6382 246.5 3.5 191.938 3.5 125C3.5 58.0625 60.6382 3.5 131.5 3.5C202.362 3.5 259.5 58.0625 259.5 125Z" fill="#DBDBDB" stroke="#D18C04" stroke-width="7"/>
<path fill-rule="evenodd" clip-rule="evenodd" d="M83 54C83 53.4477 83.4477 53 84 53H180C180.552 53 181 53.4477 181 54V197C181 197.552 180.552 198 180 198H84C83.4477 198 83 197.552 83 197V54ZM91.1667 60.7502C91.1667 60.4741 91.3905 60.2502 91.6667 60.2502H172.333C172.609 60.2502 172.833 60.4741 172.833 60.7502V190.25C172.833 190.526 172.609 190.75 172.333 190.75H91.6667C91.3905 190.75 91.1667 190.526 91.1667 190.25V60.7502ZM132 183.5C136.51 183.5 140.167 180.254 140.167 176.25C140.167 172.246 136.51 169 132 169C127.49 169 123.833 172.246 123.833 176.25C123.833 180.254 127.49 183.5 132 183.5Z" fill="#D18C04"/>
</svg>
