<svg width="427" height="534" viewBox="0 0 427 534" fill="none" xmlns="http://www.w3.org/2000/svg">
<path d="M84 8H398.5C410.098 8 419.5 17.402 419.5 29V505C419.5 516.598 410.098 526 398.5 526H29C17.402 526 8 516.598 8 505V100L84 8Z" fill="#C4C4C4"/>
<path d="M84 8H398.5C410.098 8 419.5 17.402 419.5 29V505C419.5 516.598 410.098 526 398.5 526H29C17.402 526 8 516.598 8 505V100M84 8V95C84 97.7614 81.7614 100 79 100H8M84 8L8 100" stroke="black" stroke-width="15"/>
<path d="M161 152L100 213M100 152L161 213" stroke="black" stroke-width="15"/>
<path d="M319 152L258 213M258 152L319 213" stroke="black" stroke-width="15"/>
<path d="M124.5 398.331V340H203.5V398.331C203.5 399.369 202.963 400.333 202.081 400.88L185.611 411.096C172.373 419.306 155.627 419.306 142.389 411.096L125.919 400.88C125.037 400.333 124.5 399.369 124.5 398.331Z" fill="#E78585"/>
<path d="M100 340H124.5M316 340H203.5M124.5 340V398.331C124.5 399.369 125.037 400.333 125.919 400.88L142.389 411.096C155.627 419.306 172.373 419.306 185.611 411.096L202.081 400.88C202.963 400.333 203.5 399.369 203.5 398.331V340M124.5 340H203.5" stroke="black" stroke-width="15"/>
<path d="M164.5 346V376.5" stroke="black" stroke-width="15"/>
</svg>
