<svg width="24" height="24" viewBox="0 0 24 24" fill="none" xmlns="http://www.w3.org/2000/svg">
<path fill-rule="evenodd" clip-rule="evenodd" d="M16.5 9.5C16.5 13.366 13.366 16.5 9.5 16.5C5.63401 16.5 2.5 13.366 2.5 9.5C2.5 5.63401 5.63401 2.5 9.5 2.5C13.366 2.5 16.5 5.63401 16.5 9.5ZM14.5 9.5C14.5 12.2614 12.2614 14.5 9.5 14.5C6.73858 14.5 4.5 12.2614 4.5 9.5C4.5 6.73858 6.73858 4.5 9.5 4.5C12.2614 4.5 14.5 6.73858 14.5 9.5ZM14.4058 15.8199C14.934 15.4092 15.4094 14.9339 15.82 14.4056L21.2072 19.7929C21.5977 20.1834 21.5977 20.8166 21.2072 21.2071C20.8167 21.5976 20.1835 21.5976 19.793 21.2071L14.4058 15.8199Z" fill="black"/>
</svg>
