<svg width="70" height="70" viewBox="0 0 70 70" fill="none" xmlns="http://www.w3.org/2000/svg">
<rect x="1" y="1" width="68" height="68" rx="15" fill="#FF881A" stroke="white" stroke-width="2"/>
<mask id="path-2-inside-1" fill="white">
<path fill-rule="evenodd" clip-rule="evenodd" d="M52.3093 67.0526C53.2952 64.5313 53.8421 61.7466 53.8421 58.8192C53.8421 47.4515 45.5947 38.2361 35.4211 38.2361C25.2474 38.2361 17 47.4515 17 58.8192C17 61.7466 17.5469 64.5313 18.5329 67.0526H52.3093Z"/>
</mask>
<path fill-rule="evenodd" clip-rule="evenodd" d="M52.3093 67.0526C53.2952 64.5313 53.8421 61.7466 53.8421 58.8192C53.8421 47.4515 45.5947 38.2361 35.4211 38.2361C25.2474 38.2361 17 47.4515 17 58.8192C17 61.7466 17.5469 64.5313 18.5329 67.0526H52.3093Z" fill="white"/>
<path d="M52.3093 67.0526V68.5526H53.3333L53.7062 67.5989L52.3093 67.0526ZM18.5329 67.0526L17.1359 67.5989L17.5088 68.5526H18.5329V67.0526ZM52.3421 58.8192C52.3421 61.5593 51.8302 64.1588 50.9123 66.5064L53.7062 67.5989C54.7601 64.9039 55.3421 61.9339 55.3421 58.8192H52.3421ZM35.4211 39.7361C44.6141 39.7361 52.3421 48.119 52.3421 58.8192H55.3421C55.3421 46.7839 46.5754 36.7361 35.4211 36.7361V39.7361ZM18.5 58.8192C18.5 48.119 26.228 39.7361 35.4211 39.7361V36.7361C24.2667 36.7361 15.5 46.7839 15.5 58.8192H18.5ZM19.9298 66.5064C19.0119 64.1588 18.5 61.5593 18.5 58.8192H15.5C15.5 61.9339 16.082 64.9039 17.1359 67.5989L19.9298 66.5064ZM18.5329 68.5526H52.3093V65.5526H18.5329V68.5526Z" fill="black" mask="url(#path-2-inside-1)"/>
<path d="M46.0774 29.0343C46.0774 36.2174 41.0764 41.8449 35.1315 41.8449C29.1865 41.8449 24.1855 36.2174 24.1855 29.0343C24.1855 21.8512 29.1865 16.2236 35.1315 16.2236C41.0764 16.2236 46.0774 21.8512 46.0774 29.0343Z" fill="white" stroke="black" stroke-width="1.5"/>
</svg>
